# xmcd CD database file
#
# Track frame offsets:
#	150
#	10150
#	21910
#	30377
#	42170
#	52062
#	61917
#	73195
#	84157
#	96052
#	103967
#	115942
#	130037
#	146192
#	156057
#	169607
#
# Disc length: 2399 seconds
#
# Revision: 5
# Processed by: cddbd v1.5.2PL0 Copyright (c) Steve Scherf et al.
# Submitted via: CDex 1.70beta2
#
DISCID=d1095d10
DTITLE=Various Artist - Country and Western Songs - CD3
DYEAR=1995
DGENRE=Country
TTITLE0=Bobby Bare - Help Me Make It Through The Night
TTITLE1=Dave Dudley - The Most Beautiful Girl
TTITLE2=Freddy Quinn - Oh, Susanna
TTITLE3=Bobby Lord - Good Old Song
TTITLE4=Linda Manning - Life Keeps Moving On
TTITLE5=Rick Johnson - Please Don't Love Me
TTITLE6=Ferlin Husky - My Home Town
TTITLE7=Bobby Bare - Hello Darlin'
TTITLE8=Roy Baham - Linda's Red Dress
TTITLE9=The Czech Symphony Orchestra - Bonanza
TTITLE10=Al Terry - It Will Never Rain Roses
TTITLE11=Ferlin Husky - Little Tom
TTITLE12=Bobby Bare - Me And Bobby McGee
TTITLE13=Dave Dudley - Cowboy Boots
TTITLE14=Billy Grammer - The Hour Of Speration
TTITLE15=Ronnie Rogers - Rosie's Leaving
EXTD=YEAR: 1995
EXTT0=
EXTT1=
EXTT2=
EXTT3=
EXTT4=
EXTT5=
EXTT6=
EXTT7=
EXTT8=
EXTT9=
EXTT10=
EXTT11=
EXTT12=
EXTT13=
EXTT14=
EXTT15=
PLAYORDER=
